<?xml version="1.0" encoding="utf-8"?>
<!-- Generator: Adobe Illustrator 24.3.0, SVG Export Plug-In . SVG Version: 6.00 Build 0)  -->
<svg version="1.1" id="Layer_1" xmlns="http://www.w3.org/2000/svg" xmlns:xlink="http://www.w3.org/1999/xlink" x="0px" y="0px"
	 viewBox="0 0 200 200" style="enable-background:new 0 0 200 200;" xml:space="preserve">
<style type="text/css">
	.st0{fill:#FFFFFF;}
</style>
<g>
	<path class="st0" d="M35,31.2c0,0.7,0,1.1,0,1.6c0,6.4,0,12.8,0,19.2c0,0.4,0,0.8,0,1.2c0.8,4.7,1.6,9.4,2.4,14.1
		c1,5.4,2,10.8,2.9,16.2c0.8,4.6,1.6,9.1,2.4,13.7c0.8,4.6,1.6,9.3,2.4,13.9c0.4,2.5,0.8,5,1.2,7.4c0.5,2.8,1.1,5.6,1.5,8.4
		c0.1,0.9,0.3,1.1,1.2,1.1c4.4,0,8.7,0,13.1,0c0.3,0,0.5,0,0.8-0.1c0-2.1,0-4.1,0-6.2c-2.8,0-5.4,0-8.1,0c-1.7,0-1.7-0.1-2-1.8
		c-0.6-3.9-1.3-7.9-2-11.8c-0.7-4-1.5-8.1-2.3-12.1c-0.7-3.8-1.4-7.7-2.1-11.5c-0.7-4-1.5-8.1-2.3-12.1c-0.6-3.2-1.2-6.5-1.8-9.7
		c-0.2-1.1-0.3-2.3-0.5-3.4c39.2,0,78.2,0,117.3,0c-0.3,1.6-0.5,3.1-0.8,4.6c-0.7,4-1.5,8.1-2.2,12.1c-0.5,3-1,6-1.6,8.9
		c-0.7,3.9-1.5,7.7-2.2,11.6c-0.7,4-1.3,7.9-2,11.9c-0.7,3.9-1.6,7.8-2.2,11.7c-0.2,1.3-0.6,1.5-1.8,1.5c-21,0-42,0-63,0
		c-0.5,0-1,0-1.5,0c0,2.2,0,4.2,0,6.2c23.8,0,47.5,0,71.3,0c4.5-24.9,9.1-49.8,13.6-74.9c-0.7,0-1.2-0.1-1.8-0.1
		c-40.8,0-81.5,0-122.3,0c-1.6,0-1.6,0-1.6-1.6c0-8.4,0-16.7,0-25.1c0-0.5,0-0.9-0.1-1.4c-9.4,0-18.7,0-28,0c0,2.1,0,4,0,6.1
		C20.4,31.2,27.6,31.2,35,31.2z M94.7,90.6c-0.4,0.4-0.7,0.8-1,1.1c-4.7,4.8-9.4,9.7-14.2,14.5c-0.6,0.7-0.6,1,0,1.6
		c1.3,1.2,2.6,2.5,3.7,3.8c0.6,0.7,1,0.7,1.6,0c4.8-4.9,9.6-9.8,14.4-14.8c0.6-0.6,0.9-0.7,1.5-0.1c2.9,3,5.8,6,8.7,8.9
		c2.2,2.2,4.5,4.3,6.7,6.4c1.4-1.3,2.8-2.9,4.4-4.2c0.8-0.7,0.6-1.1,0-1.8c-4.8-4.9-9.6-9.8-14.3-14.7c-0.5-0.5-0.7-0.9,0-1.5
		c4.9-4.9,9.7-10,14.5-14.9c0.6-0.6,0.6-1,0-1.5c-1-1-2-2-2.9-2.9c-0.6-0.6-1.2-1.1-1.8-1.7c-5.4,5.5-10.7,10.9-15.9,16.3
		C95,79.9,90,74.8,85,69.7c-0.7-0.7-1.1-0.9-1.9,0c-1,1.2-2.1,2.2-3.2,3.3c-1.2,1.2-1.2,1.2,0,2.4C84.8,80.4,89.7,85.4,94.7,90.6z
		 M72.5,131.2c-12,0-21.9,9.5-21.9,21.8c0,12.3,9.7,21.8,21.8,21.9c12.1,0,21.9-9.7,21.9-21.9C94.3,140.9,84.5,131.2,72.5,131.2z
		 M150.6,153.1c0.1-12.1-9.8-21.9-21.8-21.9c-12.1,0-21.9,9.8-21.9,21.9c0,12.1,9.9,21.8,21.9,21.8
		C140.8,174.9,150.7,165.2,150.6,153.1z M69.5,121.9c0,2.1,0,4.1,0,6.1c2.1,0,4,0,6.1,0c0-2.1,0-4.1,0-6.1
		C73.5,121.9,71.5,121.9,69.5,121.9z"/>
	<path d="M35,31.2c-7.4,0-14.6,0-21.8,0c0-2.1,0-4.1,0-6.1c9.3,0,18.6,0,28,0c0,0.4,0.1,0.9,0.1,1.4c0,8.4,0,16.7,0,25.1
		c0,1.6,0,1.6,1.6,1.6c40.8,0,81.5,0,122.3,0c0.5,0,1.1,0,1.8,0.1c-4.6,25.1-9.1,50-13.6,74.9c-23.8,0-47.5,0-71.3,0c0-2,0-4,0-6.2
		c0.5,0,1,0,1.5,0c21,0,42,0,63,0c1.2,0,1.6-0.2,1.8-1.5c0.6-3.9,1.5-7.8,2.2-11.7c0.7-4,1.3-7.9,2-11.9c0.7-3.9,1.5-7.7,2.2-11.6
		c0.6-3,1.1-6,1.6-8.9c0.7-4,1.5-8.1,2.2-12.1c0.3-1.5,0.5-3,0.8-4.6c-39.1,0-78.2,0-117.3,0c0.1,1.1,0.2,2.3,0.5,3.4
		c0.6,3.2,1.2,6.5,1.8,9.7c0.8,4,1.5,8.1,2.3,12.1c0.7,3.8,1.4,7.7,2.1,11.5c0.7,4,1.5,8.1,2.3,12.1c0.7,3.9,1.4,7.9,2,11.8
		c0.3,1.7,0.3,1.8,2,1.8c2.7,0,5.3,0,8.1,0c0,2.1,0,4.1,0,6.2c-0.3,0-0.6,0.1-0.8,0.1c-4.4,0-8.7,0-13.1,0c-0.9,0-1.1-0.3-1.2-1.1
		c-0.4-2.8-1-5.6-1.5-8.4c-0.4-2.5-0.8-5-1.2-7.4c-0.8-4.6-1.6-9.3-2.4-13.9c-0.8-4.6-1.6-9.1-2.4-13.7c-1-5.4-2-10.8-2.9-16.2
		c-0.8-4.7-1.6-9.4-2.4-14.1c-0.1-0.4,0-0.8,0-1.2c0-6.4,0-12.8,0-19.2C35,32.3,35,31.8,35,31.2z"/>
	<path d="M94.7,90.6c-5-5.2-9.9-10.2-14.8-15.2c-1.1-1.2-1.1-1.2,0-2.4c1.1-1.1,2.2-2.2,3.2-3.3c0.7-0.9,1.2-0.7,1.9,0
		c4.9,5.1,9.9,10.2,15,15.5c5.3-5.4,10.5-10.8,15.9-16.3c0.6,0.6,1.2,1.1,1.8,1.7c1,1,1.9,2,2.9,2.9c0.6,0.6,0.6,0.9,0,1.5
		c-4.9,4.9-9.7,10-14.5,14.9c-0.6,0.7-0.5,1,0,1.5c4.8,4.9,9.5,9.8,14.3,14.7c0.7,0.7,0.9,1,0,1.8c-1.6,1.4-3,2.9-4.4,4.2
		c-2.2-2.1-4.5-4.2-6.7-6.4c-2.9-2.9-5.8-5.9-8.7-8.9c-0.6-0.6-0.9-0.5-1.5,0.1c-4.8,5-9.6,9.9-14.4,14.8c-0.6,0.6-1,0.7-1.6,0
		c-1.2-1.3-2.4-2.6-3.7-3.8c-0.7-0.6-0.7-1,0-1.6c4.7-4.8,9.5-9.7,14.2-14.5C94,91.4,94.3,91,94.7,90.6z"/>
	<path d="M72.5,131.2c12,0,21.8,9.7,21.8,21.8c0,12.2-9.8,21.9-21.9,21.9c-12.1,0-21.9-9.6-21.8-21.9
		C50.6,140.8,60.5,131.3,72.5,131.2z M72.5,137.5c-8.8,0.2-15.6,6.8-15.6,15.6c0,8.8,6.8,15.5,15.6,15.6c8.5,0.1,15.6-6.9,15.6-15.6
		C88.1,144.4,80.9,137.5,72.5,137.5z"/>
	<path d="M150.6,153.1c0.1,12.1-9.7,21.8-21.8,21.9c-12,0.1-21.9-9.7-21.9-21.8c0-12.1,9.8-21.9,21.9-21.9
		C140.7,131.2,150.7,141,150.6,153.1z M144.3,153.2c0.2-8.7-7.1-15.7-15.5-15.7c-8.6-0.1-15.7,6.9-15.7,15.5
		c-0.1,8.6,6.9,15.7,15.5,15.7C137.2,168.8,144.4,161.8,144.3,153.2z"/>
	<path d="M69.5,121.9c2.1,0,4,0,6.1,0c0,2,0,4,0,6.1c-2,0-4,0-6.1,0C69.5,126,69.5,124,69.5,121.9z"/>
	<path class="st0" d="M72.5,137.5c8.5,0,15.6,6.9,15.6,15.6c0,8.7-7.1,15.7-15.6,15.6c-8.8-0.1-15.6-6.8-15.6-15.6
		C56.9,144.3,63.7,137.7,72.5,137.5z"/>
	<path class="st0" d="M144.3,153.2c0.1,8.6-7.2,15.5-15.7,15.5c-8.6,0-15.6-7.1-15.5-15.7c0.1-8.6,7.1-15.6,15.7-15.5
		C137.3,137.5,144.5,144.5,144.3,153.2z"/>
</g>
</svg>
